<svg width="105" height="130" viewBox="0 0 105 130" fill="none" xmlns="http://www.w3.org/2000/svg">
<path d="M72.7195 22.8286L1.75391 66.6583L33.0878 128.247L98.8143 88.7391L72.7195 22.8286Z" fill="white"/>
<path d="M72.7195 22.8286L1.75391 66.6583L33.0878 128.247L98.8143 88.7391L72.7195 22.8286Z" stroke="#989EB1" stroke-width="2"/>
<path d="M87.0769 1.74292L16.1113 40.3213L26.935 107.161L92.6615 67.6534L87.0769 1.74292Z" fill="white"/>
<path d="M87.0769 1.74292L16.1113 40.3213L26.935 107.161L92.6615 67.6534L87.0769 1.74292Z" stroke="#142251" stroke-width="2"/>
<path d="M80.3117 45.7317L80.3117 37.1649L32.5227 65.7537L32.5227 125.862C32.5227 128.049 33.6956 129.117 35.1423 128.247L100.869 88.7392C102.315 87.8696 103.488 85.3919 103.488 83.2053L103.488 31.3702L80.3117 45.7317Z" fill="white" stroke="#989EB1" stroke-width="2"/>
<path d="M27.7969 50.0026L64.1001 30.0107" stroke="#142251" stroke-width="2"/>
<path d="M27.9863 55.9427L50.1374 43.7537" stroke="#142251" stroke-width="2"/>
</svg>
